<?xml version="1.0" encoding="UTF-8"?>
<svg version="1.1" xmlns="http://www.w3.org/2000/svg" width="500" height="244">
<path d="M0 0 C0.02578125 0.79664063 0.0515625 1.59328125 0.078125 2.4140625 C0.46924306 10.96930788 0.46924306 10.96930788 5 18 C7.13287276 19.44948292 9.31486197 20.806476 11.5 22.17578125 C16.36626822 25.72663634 20.10065682 30.44535954 24 35 C37.22008524 50.26826746 51.86109448 61.93054724 70 71 C70.9375 72.75 70.9375 72.75 71 75 C67.21697423 80.34841574 62.26876128 81.78212319 56 83 C49.28442853 83.88810999 43.12999465 82.20934372 36.59765625 80.7421875 C13.09651332 75.8939604 -10.99842697 82.34871753 -31 95 C-34.51978776 97.44557986 -37.81704508 100.1298662 -41 103 C-41 95.37080797 -31.62548939 87.00053388 -26.640625 81.5625 C-20.66370783 75.76241469 -13.92447524 70.61631682 -7 66 C-28.76454716 64.70563266 -51.00786763 71.34587903 -67.625 85.5625 C-86.3232373 103.42551344 -93.97697202 127.86825995 -97 153 C-104.65737492 140.74820013 -99.96765305 118.34567598 -97 105 C-93.01987162 88.89050751 -85.03305963 74.11225952 -75 61 C-74.43394043 60.25733887 -73.86788086 59.51467773 -73.28466797 58.74951172 C-68.30043454 52.35655484 -62.87960561 46.57673022 -57.125 40.875 C-55.87396484 39.61236328 -55.87396484 39.61236328 -54.59765625 38.32421875 C-40.08982205 23.86123102 -40.08982205 23.86123102 -32 21 C-31.9175 19.80375 -31.835 18.6075 -31.75 17.375 C-31.01946238 11.70082421 -28.27740669 8.00204683 -24.125 4.1875 C-20.89454679 1.92618275 -18.88729031 1.27766359 -15 1 C-15.66 4.63 -16.32 8.26 -17 12 C-16.195625 10.948125 -15.39125 9.89625 -14.5625 8.8125 C-11.09954536 4.74621436 -5.62413098 0 0 0 Z M11 35 C12.33783869 40.51858459 16.5122365 43.85009807 21 47 C23.15051458 47.72449853 23.15051458 47.72449853 25 48 C21.6374225 42.41955223 18.85429168 38.06019792 13 35 C12.34 35 11.68 35 11 35 Z " fill="#000" transform="translate(168,10)"/>
<path d="M0 0 C1 2 1 2 0.44140625 3.6796875 C0.15136719 4.40414062 -0.13867188 5.12859375 -0.4375 5.875 C-4.71879484 19.5315377 -2.88957958 35.3116288 3.47265625 47.91796875 C11.10932543 61.00682255 22.6754912 68.71838296 37.01953125 72.875 C39.69229607 73.42561249 42.28140506 73.7751538 45 74 C46.30130859 74.12181641 46.30130859 74.12181641 47.62890625 74.24609375 C61.11305872 74.89380413 73.9595375 69.53287578 84.3125 61.12109375 C94.89285181 51.20201393 99.68684397 38.03111748 102 24 C102.33 24 102.66 24 103 24 C105.6648139 39.62877343 101.48073364 54.09279568 92.52734375 66.96484375 C92.02332031 67.63644531 91.51929688 68.30804688 91 69 C90.38382812 69.82628906 89.76765625 70.65257812 89.1328125 71.50390625 C80.83620583 81.2136712 67.21222437 88.09953525 54.49145508 89.22119141 C36.04546282 90.01591286 22.2476421 86.99096201 7.875 74.875 C-3.10192857 64.57118497 -9.31691875 51.58610884 -10.203125 36.5546875 C-10.37517239 23.04896734 -7.66772489 12.75835317 -1 1 C-0.67 0.67 -0.34 0.34 0 0 Z " fill="#000" transform="translate(121,120)"/>
<path d="M0 0 C0.66 0.33 1.32 0.66 2 1 C1.28714844 1.50789063 0.57429688 2.01578125 -0.16015625 2.5390625 C-3.12442506 4.66950604 -6.06492223 6.82955579 -9 9 C-9.65097656 9.46535156 -10.30195312 9.93070313 -10.97265625 10.41015625 C-23.97034482 20.45801479 -31.61616928 38.15017439 -34 54 C-36.04420054 73.58989654 -30.873671 92.19703824 -18.75 107.8125 C-5.94168195 122.52154652 10.72989333 131.30103823 30.10449219 133.20703125 C38.5081551 133.76068434 46.31454426 132.84846617 54.42578125 130.55859375 C57 130 57 130 60 131 C42.16889032 139.12841577 22.28350604 142.75243087 3.26953125 136.32421875 C-17.15688398 128.05115452 -31.89694888 115.44533579 -41.07226562 95.23779297 C-48.28644853 77.83642441 -48.13133134 58.34456789 -41.17041016 40.92382812 C-33.26587412 22.53560663 -20.7532163 9.93093903 -2.87109375 1.1171875 C-1.92363281 0.74851562 -0.97617188 0.37984375 0 0 Z " fill="#000" transform="translate(127,94)"/>
<path d="M0 0 C3.3 0 6.6 0 10 0 C10.35827881 0.81267334 10.71655762 1.62534668 11.08569336 2.46264648 C12.41261731 5.46949362 13.74160616 8.47540987 15.07202148 11.48071289 C15.64805204 12.78307816 16.22325036 14.08581185 16.79760742 15.38891602 C17.62201335 17.25894464 18.44937637 19.12763976 19.27734375 20.99609375 C19.77484131 22.12200928 20.27233887 23.2479248 20.78491211 24.40795898 C21.76267091 26.8760428 21.76267091 26.8760428 23 28 C26.96 18.76 30.92 9.52 35 0 C38.63 0 42.26 0 46 0 C46 13.86 46 27.72 46 42 C42.7 42 39.4 42 36 42 C35.67 35.73 35.34 29.46 35 23 C34.43410156 24.28777344 33.86820312 25.57554688 33.28515625 26.90234375 C32.5443926 28.58078291 31.80350055 30.25916541 31.0625 31.9375 C30.68931641 32.78763672 30.31613281 33.63777344 29.93164062 34.51367188 C29.57392578 35.32255859 29.21621094 36.13144531 28.84765625 36.96484375 C28.51773682 37.7137085 28.18781738 38.46257324 27.84790039 39.23413086 C27 41 27 41 26 42 C23.66702567 42.04092937 21.33294775 42.04241723 19 42 C15.60332223 35.45721905 12.65324022 28.87877094 10 22 C9.67 28.6 9.34 35.2 9 42 C6.03 42 3.06 42 0 42 C0 28.14 0 14.28 0 0 Z " fill="#000" transform="translate(334,102)"/>
<path d="M0 0 C0.76441406 0.07863281 1.52882812 0.15726562 2.31640625 0.23828125 C4.4375 0.6875 4.4375 0.6875 7.4375 2.6875 C7.7675 2.0275 8.0975 1.3675 8.4375 0.6875 C11.4075 0.6875 14.3775 0.6875 17.4375 0.6875 C17.4375 11.5775 17.4375 22.4675 17.4375 33.6875 C14.4675 33.6875 11.4975 33.6875 8.4375 33.6875 C8.1075 33.0275 7.7775 32.3675 7.4375 31.6875 C6.7775 32.1825 6.1175 32.6775 5.4375 33.1875 C1.68657939 35.0629603 -1.48278619 35.26572715 -5.5625 34.6875 C-10.82844344 32.82893173 -13.35645768 30.08435804 -16.5625 25.6875 C-18.44144454 20.05066637 -18.30970942 13.92912826 -16.4375 8.3125 C-13.86021466 4.70430052 -10.97312507 1.51738732 -6.65625 0.03125 C-4.3159086 -0.35298515 -2.3547034 -0.26694607 0 0 Z M-5.9375 10.25 C-8.12730838 13.53471256 -8.5625 15.74004066 -8.5625 19.6875 C-7.17095604 23.15005794 -7.17095604 23.15005794 -4.5625 25.6875 C-0.97844904 26.98385886 0.66081316 27.00523553 4.1875 25.5625 C6.84603475 23.34705438 7.65554663 22.0498995 8.4375 18.6875 C8.2935483 15.16068331 7.80858249 13.22985134 5.8125 10.3125 C1.80658812 7.57161292 -1.88761703 7.58560331 -5.9375 10.25 Z " fill="#000" transform="translate(245.5625,110.3125)"/>
<path d="M0 0 C4.65108914 5.29261868 4 8.44385484 4 16 C-3.59 16.33 -11.18 16.66 -19 17 C-15.62299786 21.14769193 -15.62299786 21.14769193 -12.4375 21.4375 C-9.9414349 21.25108603 -9.9414349 21.25108603 -8.671875 19.484375 C-6.3595534 17.43137919 -4.85053694 17.69413492 -1.8125 17.8125 C-0.46091797 17.85310547 -0.46091797 17.85310547 0.91796875 17.89453125 C1.94857422 17.94673828 1.94857422 17.94673828 3 18 C2.91651691 20.83842501 2.4276272 22.54049314 0.48046875 24.6328125 C-4.42280138 28.90639952 -8.05951988 30.37973095 -14.5859375 30.2734375 C-20.22683695 29.63450067 -23.86133258 27.33793422 -27.5 23.0625 C-30.06837937 17.76521756 -29.72833147 11.70894166 -29 6 C-26.62120393 0.97809719 -23.07384566 -2.89000018 -17.75 -4.8125 C-10.78122757 -5.28764357 -5.52678429 -4.60565358 0 0 Z M-18 5 C-18.33 6.32 -18.66 7.64 -19 9 C-14.71 9 -10.42 9 -6 9 C-7.64856825 4.87596527 -7.64856825 4.87596527 -11 3 C-14.15081975 3 -15.41847698 3.27898465 -18 5 Z " fill="#000" transform="translate(412,115)"/>
<path d="M0 0 C2.97 0 5.94 0 9 0 C9.33 7.26 9.66 14.52 10 22 C11.2375 20.185 12.475 18.37 13.75 16.5 C17.98309855 11.22719304 17.98309855 11.22719304 22.26953125 10.26953125 C25.24875561 10.30840606 28.06317623 10.50804475 31 11 C29.00772172 15.70308314 25.47401636 18.91207243 21.99609375 22.5625 C20.03800407 24.9535919 19.3189937 25.99715818 19 29 C19.95533376 30.70231497 19.95533376 30.70231497 21.52734375 32.1640625 C22.07197266 32.72867188 22.61660156 33.29328125 23.17773438 33.875 C24.04881836 34.74125 24.04881836 34.74125 24.9375 35.625 C31 41.77555866 31 41.77555866 31 44 C26.83803867 44.63380122 23.14204923 44.84127643 19 44 C15.36249408 41.10825889 12.67498818 37.78281157 10 34 C9.67 37.3 9.34 40.6 9 44 C6.03 44 3.06 44 0 44 C0 29.48 0 14.96 0 0 Z " fill="#000" transform="translate(301,100)"/>
<path d="M0 0 C2.58406103 2.26893164 4.09539984 4.15278855 5.5625 7.25 C5.5625 7.91 5.5625 8.57 5.5625 9.25 C3.98003293 9.33153933 2.39633727 9.38943557 0.8125 9.4375 C-0.06921875 9.47230469 -0.9509375 9.50710937 -1.859375 9.54296875 C-4.91600721 9.19562418 -6.0455781 8.09295622 -8.4375 6.25 C-12.12565293 6.47868094 -12.12565293 6.47868094 -15.4375 7.25 C-16.85108388 11.66744961 -16.94248917 16.11782348 -15.875 20.625 C-14.39288989 22.59964323 -14.39288989 22.59964323 -11 23.1875 C-9.824375 23.208125 -8.64875 23.22875 -7.4375 23.25 C-6.97601563 22.76015625 -6.51453125 22.2703125 -6.0390625 21.765625 C-4.4375 20.25 -4.4375 20.25 -1.95703125 19.95703125 C-1.06371094 19.99183594 -0.17039062 20.02664062 0.75 20.0625 C2.10158203 20.10310547 2.10158203 20.10310547 3.48046875 20.14453125 C4.51107422 20.19673828 4.51107422 20.19673828 5.5625 20.25 C4.24021571 25.93582243 2.15994698 27.9661093 -2.4375 31.25 C-7.96164552 33.09138184 -13.37803424 33.04150747 -18.75 30.6875 C-22.72398595 28.38718877 -25.20161447 25.71463646 -26.4375 21.25 C-27.14856794 15.30961995 -27.33904954 10.15327125 -24.75 4.6875 C-17.44825811 -3.00893064 -9.78566723 -4.98179422 0 0 Z " fill="#000" transform="translate(292.4375,112.75)"/>
<path d="M0 0 C10.23 0 20.46 0 31 0 C31 2.64 31 5.28 31 8 C27.37 8 23.74 8 20 8 C20 19.22 20 30.44 20 42 C17.03 42 14.06 42 11 42 C11 30.78 11 19.56 11 8 C7.37 8 3.74 8 0 8 C0 5.36 0 2.72 0 0 Z " fill="#000" transform="translate(175,102)"/>
<path d="M0 0 C0 3.3 0 6.6 0 10 C-2.05078125 10.42317708 -4.1015625 10.84635417 -6.15234375 11.26953125 C-7.06693359 11.63111328 -7.06693359 11.63111328 -8 12 C-8.90833969 14.72501908 -9.18359985 16.62233971 -9.31640625 19.44921875 C-9.35830078 20.29677734 -9.40019531 21.14433594 -9.44335938 22.01757812 C-9.48267578 22.89865234 -9.52199219 23.77972656 -9.5625 24.6875 C-9.60568359 25.58017578 -9.64886719 26.47285156 -9.69335938 27.39257812 C-9.7993522 29.59487344 -9.90017221 31.79741662 -10 34 C-12.97 34 -15.94 34 -19 34 C-19 23.11 -19 12.22 -19 1 C-16.03 1 -13.06 1 -10 1 C-9.67 1.99 -9.34 2.98 -9 4 C-8.566875 3.525625 -8.13375 3.05125 -7.6875 2.5625 C-5.20984394 0.26837402 -3.33340345 0 0 0 Z " fill="#000" transform="translate(228,110)"/>
</svg>
